<?xml version="1.0" encoding="utf-8"?>
<!-- Generator: Adobe Illustrator 23.0.6, SVG Export Plug-In . SVG Version: 6.00 Build 0)  -->
<svg version="1.1" id="Capa_1" xmlns="http://www.w3.org/2000/svg" xmlns:xlink="http://www.w3.org/1999/xlink" x="0px" y="0px"
	 viewBox="0 0 302.7 79.7" style="enable-background:new 0 0 302.7 79.7;" xml:space="preserve">
<style type="text/css">
	.st0{fill:#FFFFFF;}
</style>
<g>
	<path class="st0" d="M24.2,15.8c4.4,0,7.9-3.5,7.9-7.9S28.6,0,24.2,0c-4.4,0-7.9,3.5-7.9,7.9C16.3,12.2,19.9,15.8,24.2,15.8z"/>
	<path class="st0" d="M69.1,15.8c4.3,0,7.9-3.5,7.9-7.9S73.4,0,69.1,0c-4.3,0-7.9,3.5-7.9,7.9S64.7,15.8,69.1,15.8z"/>
	<path class="st0" d="M38.9,40.5c0,4.3,3.5,7.9,7.9,7.9c4.3,0,7.9-3.5,7.9-7.9c0-4.3-3.5-7.9-7.9-7.9C42.4,32.6,38.9,36.1,38.9,40.5
		z"/>
	<path class="st0" d="M42.1,8.3L42.1,8.3L24.2,26.2L9.1,11.1c-1.6-1.6-4.2-1.6-5.8,0l-2.1,2.1c-1.6,1.6-1.6,4.2,0,5.8l17.4,17.4v42
		h11.1l0.4,0l10.8-10.5l0,3.1v3.4c0,2.2,1.8,4.1,4.1,4.1h3c2.2,0,4.1-1.8,4.1-4.1v-6.5l10.3,10.3l0.3,0.2l11.7,0l-0.1-41.8
		l17.4-17.4c1.6-1.6,1.6-4.2,0-5.8l-2.1-2.1c-1.6-1.6-4.2-1.6-5.8,0l-15.1,15L50.8,8.3v0 M63.2,63.3L52,52.1l-11.1,0L29.7,63.2v-27
		l16.8-16.8l16.8,16.8V63.3z M50.8,8.3c0,0-1.5-1.6-4.4-1.6c-2.9,0-4.3,1.6-4.3,1.6"/>
	<path class="st0" d="M114.3,59.8h-11.2l5.7-17.2h0.1L114.3,59.8z M89.6,68.1c-1.4,3.7-1.6,5-1.6,6.6c0,2.6,2.1,4.3,5.1,4.3
		c3.5,0,4.6-2.2,5.6-5.2l1.3-4.2h17.5l1.3,4.2c1,3,2.1,5.2,5.6,5.2c3,0,5.1-1.7,5.1-4.3c0-1.6-0.2-2.8-1.6-6.6l-10.3-27.7
		c-1.9-5.2-3.5-9.7-9-9.7c-5.3,0-7,4.5-8.9,9.7L89.6,68.1z"/>
	<path class="st0" d="M138,66.4c2.6,0,6,2.7,11.5,2.7c4.1,0,5.6-2.1,5.6-4.4c0-3.6-4.1-4.3-10.1-6.2c-5.5-1.8-11.2-4.1-11.2-12.6
		c0-10.2,8-15,16.8-15c8.6,0,13.3,3,13.3,7c0,2.9-1.9,5-4.7,5c-3.4,0-4.5-1.8-9.1-1.8c-2.9,0-4.9,1.5-4.9,3.8c0,2.7,2.6,3,10,5.5
		c5.8,1.9,11.4,4.9,11.4,13.7c0,10.8-8,15.6-17.9,15.6c-6.3,0-15.7-2.4-15.7-7.7C133,69.1,134.8,66.4,138,66.4z"/>
	<path class="st0" d="M183.4,41.7h6.1c7.8,0,11.7,5.3,11.7,13.2c0,8.1-3.9,13.9-12.2,13.9h-5.6L183.4,41.7L183.4,41.7z M172.7,73.3
		c0,3.4,2.5,5.3,5.3,5.3h12.8c11.6,0,21.8-8.4,21.8-23.7c0-12-7.9-23.1-21.8-23.1H178c-2.8,0-5.3,1.9-5.3,5.3L172.7,73.3L172.7,73.3
		z"/>
	<path class="st0" d="M230.4,41.7h7c3,0,5.5,1.9,5.5,5.1c0,2.9-2,5.3-5.5,5.3h-7V41.7z M219.8,73.4c0,3.7,2.2,5.6,5.3,5.6
		c3.1,0,5.3-1.9,5.3-5.6V59.9h0.1l13.1,16.5c1.3,1.6,2.3,2.6,5.1,2.6c4.1,0,5.5-3.4,5.5-4.9c0-1.8-0.8-3-2.2-4.6l-9.3-10
		c6.7-1.2,10.9-6.2,10.9-13.2c0-8.7-6.2-14.5-15.6-14.5h-12.8c-2.8,0-5.3,1.9-5.3,5.3L219.8,73.4L219.8,73.4z"/>
	<path class="st0" d="M284.5,59.8h-11.2l5.7-17.2h0.1L284.5,59.8z M259.7,68.1c-1.4,3.7-1.6,5-1.6,6.6c0,2.6,2.1,4.3,5.1,4.3
		c3.5,0,4.6-2.2,5.6-5.2l1.3-4.2h17.5l1.3,4.2c1,3,2.1,5.2,5.6,5.2c3,0,5.1-1.7,5.1-4.3c0-1.6-0.2-2.8-1.6-6.6l-10.3-27.7
		c-1.9-5.2-3.6-9.7-9-9.7c-5.3,0-7,4.5-8.9,9.7L259.7,68.1z"/>
</g>
</svg>
