<?xml version="1.0" encoding="utf-8"?>
<!-- Generator: Adobe Illustrator 23.0.6, SVG Export Plug-In . SVG Version: 6.00 Build 0)  -->
<svg version="1.1" id="Capa_1" xmlns="http://www.w3.org/2000/svg" xmlns:xlink="http://www.w3.org/1999/xlink" x="0px" y="0px"
	 viewBox="0 0 260.05 94.63" style="enable-background:new 0 0 260.05 94.63;" xml:space="preserve">
<style type="text/css">
	.st0{fill:#FFFFFF;}
</style>
<g>
	<path class="st0" d="M24.21,15.76c4.35,0,7.87-3.53,7.87-7.88c0-4.35-3.52-7.88-7.87-7.88c-4.36,0-7.89,3.53-7.89,7.88
		C16.33,12.23,19.85,15.76,24.21,15.76z"/>
	<path class="st0" d="M69.08,15.76c4.34,0,7.88-3.53,7.88-7.88c0-4.35-3.54-7.88-7.88-7.88c-4.35,0-7.88,3.53-7.88,7.88
		C61.2,12.23,64.73,15.76,69.08,15.76z"/>
	<path class="st0" d="M38.88,40.46c0,4.35,3.52,7.87,7.88,7.87c4.34,0,7.88-3.53,7.88-7.87c0-4.35-3.53-7.88-7.88-7.88
		C42.4,32.59,38.88,36.11,38.88,40.46z"/>
	<path class="st0" d="M46.39,6.67 M42.06,8.25v0.03l-17.91,17.9L9.09,11.11c-1.6-1.6-4.17-1.6-5.76,0l-2.14,2.14
		c-1.59,1.59-1.59,4.16,0,5.75l17.36,17.37v41.99h11.12l0.43-0.02L40.9,67.86l-0.01,3.05v3.4c0,2.24,1.82,4.06,4.06,4.06h3.04
		c2.24,0,4.06-1.82,4.06-4.06v-6.53l10.34,10.35l0.29,0.23l11.72-0.01l-0.08-41.81l17.43-17.42c1.59-1.59,1.59-4.16-0.01-5.75
		l-2.14-2.14c-1.59-1.59-4.16-1.59-5.75,0L68.76,26.21L50.82,8.27V8.25 M63.2,63.34L51.95,52.09l-11.13-0.01L29.68,63.23V36.24
		l16.76-16.76L63.2,36.24V63.34z M50.82,8.25c0,0-1.45-1.56-4.43-1.58c-2.89-0.02-4.33,1.58-4.33,1.58"/>
	<path class="st0" d="M92.94,75.34h-3.22l1.61-4.01L92.94,75.34z M87.3,78.33h1.22l0.82-2.04h3.96l0.83,2.04h1.26l-3.41-8.09h-1.22
		L87.3,78.33z"/>
	<path class="st0" d="M96.34,77.17c0.42,0.28,1.03,0.42,1.35,0.42c0.49,0,1.11-0.21,1.11-0.84c0-1.08-2.56-0.99-2.56-2.65
		c0-1.23,0.92-1.82,2.09-1.82c0.51,0,0.93,0.1,1.35,0.23l-0.09,0.95c-0.24-0.15-0.89-0.31-1.15-0.31c-0.56,0-1.05,0.24-1.05,0.72
		c0,1.21,2.57,0.86,2.57,2.74c0,1.27-1,1.85-2.06,1.85c-0.56,0-1.14-0.06-1.63-0.32L96.34,77.17z"/>
	<path class="st0" d="M102.37,75.38c0-1.12,0.68-2.21,1.85-2.21c1.17,0,1.85,1.09,1.85,2.21c0,1.05-0.57,2.21-1.85,2.21
		C102.94,77.59,102.37,76.43,102.37,75.38z M101.22,75.38c0,1.69,1.23,3.09,3,3.09c1.78,0,3.01-1.4,3.01-3.09
		c0-1.79-1.21-3.09-3.01-3.09C102.42,72.29,101.22,73.58,101.22,75.38z"/>
	<path class="st0" d="M112.76,73.42c-0.41-0.17-0.84-0.26-1.18-0.26c-1.23,0-1.9,1.09-1.9,2.21c0,1.05,0.57,2.21,1.97,2.21
		c0.37,0,0.83-0.12,1.17-0.33l0.08,0.97c-0.45,0.2-0.97,0.24-1.36,0.24c-1.79,0-3.01-1.4-3.01-3.09c0-1.79,1.2-3.09,3.01-3.09
		c0.43,0,1.01,0.1,1.32,0.23L112.76,73.42z"/>
	<path class="st0" d="M114.61,72.42h1.09v5.91h-1.09V72.42z M115.77,71.1h-1.22v-1.23h1.22V71.1z"/>
	<path class="st0" d="M121.53,76.04c0,0.88-0.57,1.55-1.64,1.55c-0.5,0-1.1-0.33-1.1-0.97c0-1.04,1.46-1.13,2.05-1.13
		c0.23,0,0.46,0.03,0.69,0.03V76.04z M118.36,73.77c0.44-0.37,1.1-0.61,1.72-0.61c1.08,0,1.46,0.52,1.46,1.54
		c-0.43-0.02-0.72-0.02-1.15-0.02c-1.13,0-2.75,0.46-2.75,1.94c0,1.29,0.89,1.85,2.17,1.85c1,0,1.58-0.54,1.84-0.9h0.03v0.77h1.01
		c-0.02-0.17-0.04-0.49-0.04-1.17v-2.44c0-1.61-0.69-2.44-2.38-2.44c-0.75,0-1.4,0.23-1.95,0.55L118.36,73.77z"/>
	<path class="st0" d="M128.53,73.42c-0.42-0.17-0.84-0.26-1.18-0.26c-1.22,0-1.9,1.09-1.9,2.21c0,1.05,0.56,2.21,1.97,2.21
		c0.37,0,0.83-0.12,1.17-0.33l0.08,0.97c-0.46,0.2-0.98,0.24-1.37,0.24c-1.78,0-3.02-1.4-3.02-3.09c0-1.79,1.2-3.09,3.02-3.09
		c0.43,0,1,0.1,1.32,0.23L128.53,73.42z"/>
	<path class="st0" d="M130.39,72.42h1.09v5.91h-1.09V72.42z M131.54,71.1h-1.22v-1.23h1.22V71.1z"/>
	<path class="st0" d="M135.65,71.6h0.77l1.52-1.66h-1.26L135.65,71.6z M133.4,75.38c0,1.69,1.23,3.09,2.99,3.09
		c1.79,0,3.01-1.4,3.01-3.09c0-1.79-1.2-3.09-3.01-3.09C134.6,72.29,133.4,73.58,133.4,75.38z M134.56,75.38
		c0-1.12,0.68-2.21,1.84-2.21c1.17,0,1.85,1.09,1.85,2.21c0,1.05-0.56,2.21-1.85,2.21C135.13,77.59,134.56,76.43,134.56,75.38z"/>
	<path class="st0" d="M141.19,72.42h1.06v0.94h0.02c0.32-0.66,1.11-1.07,1.94-1.07c1.53,0,2.21,0.95,2.21,2.53v3.52h-1.1v-3.06
		c0-1.38-0.3-2.05-1.25-2.11c-1.24,0-1.79,1-1.79,2.44v2.73h-1.09V72.42z"/>
	<path class="st0" d="M155.92,71.46c-0.59-0.23-0.92-0.34-1.52-0.34c-0.64,0-1.41,0.23-1.41,1.08c0,1.55,3.46,1.2,3.46,3.86
		c0,1.72-1.33,2.41-2.95,2.41c-0.56,0-1.12-0.17-1.65-0.33l0.11-1.08c0.4,0.16,1.1,0.39,1.69,0.39c0.66,0,1.59-0.36,1.59-1.32
		c0-1.81-3.49-1.31-3.49-3.82c0-1.44,1.14-2.2,2.6-2.2c0.53,0,1.17,0.09,1.72,0.29L155.92,71.46z"/>
	<path class="st0" d="M159.2,69.94h1.27l-1.52,1.66h-0.78L159.2,69.94z M158.4,72.42h1.08v5.91h-1.08V72.42z"/>
	<path class="st0" d="M161.8,72.42h1.05v0.94h0.02c0.33-0.66,1.12-1.07,1.94-1.07c1.52,0,2.21,0.95,2.21,2.53v3.52h-1.09v-3.06
		c0-1.38-0.3-2.05-1.25-2.11c-1.24,0-1.8,1-1.8,2.44v2.73h-1.09V72.42z"/>
	<path class="st0" d="M169.97,75.36c-0.03-1.08,0.44-2.19,1.62-2.19c1.18,0,1.74,1.13,1.74,2.23c0,0.99-0.51,2.2-1.74,2.2
		C170.42,77.59,169.94,76.28,169.97,75.36z M173.38,78.33h1.03v-8.69h-1.08v3.59h-0.02c-0.33-0.54-0.93-0.95-1.95-0.95
		c-1.71,0-2.55,1.4-2.55,2.99c0,1.61,0.76,3.2,2.54,3.2c1.05,0,1.72-0.53,2.02-0.97h0.02V78.33z"/>
	<path class="st0" d="M176.6,72.42h1.01v0.92h0.03c0.29-0.61,0.91-1.05,1.54-1.05c0.32,0,0.48,0.03,0.72,0.08v0.97
		c-0.19-0.08-0.42-0.1-0.61-0.1c-0.97,0-1.6,0.92-1.6,2.41v2.69h-1.09V72.42z"/>
	<path class="st0" d="M182.2,75.38c0-1.12,0.68-2.21,1.84-2.21c1.16,0,1.85,1.09,1.85,2.21c0,1.05-0.58,2.21-1.85,2.21
		C182.76,77.59,182.2,76.43,182.2,75.38z M181.03,75.38c0,1.69,1.23,3.09,3.01,3.09c1.77,0,3.01-1.4,3.01-3.09
		c0-1.79-1.2-3.09-3.01-3.09C182.24,72.29,181.03,73.58,181.03,75.38z"/>
	<path class="st0" d="M188.82,72.42h1.02v0.85h0.02c0.42-0.68,1.01-0.99,1.87-0.99c0.68,0,1.36,0.34,1.68,1.15
		c0.41-0.85,1.3-1.15,1.84-1.15c1.51,0,2.05,0.97,2.05,2.26v3.79h-1.09v-3.53c0-0.73-0.18-1.64-1.05-1.64
		c-1.11,0-1.55,1.09-1.55,2.19v2.98h-1.09v-3.53c0-0.73-0.17-1.64-1.05-1.64c-1.11,0-1.55,1.09-1.55,2.19v2.98h-1.09V72.42z"/>
	<path class="st0" d="M200.21,74.81c0.08-0.76,0.51-1.64,1.59-1.64c0.93,0,1.47,0.74,1.47,1.64H200.21z M203.98,77
		c-0.27,0.23-1.1,0.59-1.82,0.59c-1.03,0-1.95-0.8-1.95-1.97h4.21c0-1.9-0.63-3.33-2.61-3.33c-1.66,0-2.77,1.23-2.77,2.99
		c0,1.92,0.96,3.2,3.07,3.2c0.97,0,1.44-0.23,1.86-0.39V77z"/>
	<path class="st0" d="M210.53,75.36c-0.02-1.08,0.44-2.19,1.62-2.19c1.18,0,1.75,1.13,1.75,2.23c0,0.99-0.52,2.2-1.74,2.2
		C210.98,77.59,210.5,76.28,210.53,75.36z M213.94,78.33h1.04v-8.69h-1.08v3.59h-0.02c-0.34-0.54-0.94-0.95-1.96-0.95
		c-1.71,0-2.55,1.4-2.55,2.99c0,1.61,0.75,3.2,2.53,3.2c1.06,0,1.73-0.53,2.02-0.97h0.02V78.33z"/>
	<path class="st0" d="M217.92,74.81c0.08-0.76,0.52-1.64,1.59-1.64c0.94,0,1.47,0.74,1.47,1.64H217.92z M221.69,77
		c-0.27,0.23-1.11,0.59-1.82,0.59c-1.03,0-1.95-0.8-1.95-1.97h4.22c0-1.9-0.63-3.33-2.59-3.33c-1.67,0-2.77,1.23-2.77,2.99
		c0,1.92,0.95,3.2,3.05,3.2c0.97,0,1.45-0.23,1.87-0.39V77z"/>
	<path class="st0" d="M228.65,71.27h1.35c1.67,0,2.96,1.11,2.96,3c0,2.08-1.1,3.05-3.09,3.05h-1.22V71.27z M227.5,78.33h2.39
		c2.66,0,4.31-1.41,4.31-4.12c0-2.49-1.92-3.97-4.31-3.97h-2.39V78.33z"/>
	<path class="st0" d="M236.91,75.38c0-1.12,0.69-2.21,1.85-2.21c1.16,0,1.85,1.09,1.85,2.21c0,1.05-0.56,2.21-1.85,2.21
		C237.48,77.59,236.91,76.43,236.91,75.38z M235.75,75.38c0,1.69,1.23,3.09,3.01,3.09c1.77,0,3-1.4,3-3.09c0-1.79-1.2-3.09-3-3.09
		C236.97,72.29,235.75,73.58,235.75,75.38z"/>
	<path class="st0" d="M250.23,78.33h-1.26l-1.53-4.96h-0.02l-1.5,4.96h-1.26l-1.9-5.91h1.2l1.36,4.9h0.02l1.51-4.9h1.28l1.49,4.9
		h0.02l1.43-4.9h1.06L250.23,78.33z"/>
	<path class="st0" d="M253.52,72.42h1.05v0.94h0.02c0.33-0.66,1.12-1.07,1.95-1.07c1.52,0,2.21,0.95,2.21,2.53v3.52h-1.09v-3.06
		c0-1.38-0.3-2.05-1.26-2.11c-1.24,0-1.79,1-1.79,2.44v2.73h-1.1V72.42z"/>
	<path class="st0" d="M101.07,88.4c-0.02-1.08,0.44-2.18,1.62-2.18c1.18,0,1.75,1.12,1.75,2.22c0,0.99-0.51,2.21-1.74,2.21
		C101.54,90.65,101.05,89.34,101.07,88.4z M104.49,91.38h1.04V82.7h-1.08v3.59h-0.02c-0.34-0.55-0.93-0.95-1.96-0.95
		c-1.71,0-2.55,1.41-2.55,2.99c0,1.61,0.75,3.2,2.53,3.2c1.06,0,1.73-0.54,2.02-0.97h0.02V91.38z"/>
	<path class="st0" d="M108.47,87.86c0.08-0.76,0.52-1.64,1.58-1.64c0.94,0,1.47,0.74,1.47,1.64H108.47z M112.23,90.05
		c-0.27,0.22-1.1,0.6-1.82,0.6c-1.03,0-1.95-0.81-1.95-1.98h4.21c0-1.9-0.63-3.34-2.59-3.34c-1.67,0-2.78,1.24-2.78,2.99
		c0,1.93,0.96,3.2,3.06,3.2c0.97,0,1.45-0.23,1.86-0.38V90.05z"/>
	<path class="st0" d="M118.15,82.7h1.09v8.68h-1.09V82.7z"/>
	<path class="st0" d="M121.84,85.9c0.54-0.33,1.19-0.56,1.95-0.56c1.69,0,2.38,0.83,2.38,2.44v2.45c0,0.67,0.02,0.98,0.04,1.16
		h-1.02v-0.76h-0.02c-0.26,0.36-0.84,0.91-1.83,0.91c-1.28,0-2.16-0.55-2.16-1.84c0-1.48,1.61-1.94,2.73-1.94
		c0.43,0,0.74,0,1.17,0.02c0-1.01-0.37-1.54-1.46-1.54c-0.61,0-1.28,0.23-1.72,0.6L121.84,85.9z M125.07,88.57
		c-0.23,0-0.46-0.02-0.7-0.02c-0.59,0-2.05,0.08-2.05,1.13c0,0.63,0.61,0.97,1.1,0.97c1.08,0,1.65-0.68,1.65-1.56V88.57z"/>
	<path class="st0" d="M133.05,84.32h1.12c1.07,0,1.62,0.46,1.62,1.19c0,0.78-0.65,1.27-1.75,1.27h-0.99V84.32z M131.9,91.38h1.15
		v-3.59h0.7c0.61,0,0.99,0,1.35,0.79l1.24,2.8h1.33l-1.53-3.22c-0.25-0.5-0.43-0.67-0.79-0.81v-0.03c0.95-0.16,1.67-0.86,1.67-1.84
		c0-1.93-1.54-2.19-3.14-2.19h-1.98V91.38z"/>
	<path class="st0" d="M140.03,87.86c0.09-0.76,0.53-1.64,1.59-1.64c0.94,0,1.47,0.74,1.47,1.64H140.03z M143.79,90.05
		c-0.27,0.22-1.1,0.6-1.82,0.6c-1.03,0-1.95-0.81-1.95-1.98h4.22c0-1.9-0.64-3.34-2.62-3.34c-1.66,0-2.76,1.24-2.76,2.99
		c0,1.93,0.96,3.2,3.06,3.2c0.97,0,1.44-0.23,1.86-0.38V90.05z"/>
	<path class="st0" d="M150.49,88.4c0.02,0.94-0.46,2.25-1.63,2.25c-1.23,0-1.74-1.22-1.74-2.21c0-1.1,0.57-2.22,1.75-2.22
		C150.05,86.22,150.51,87.34,150.49,88.4z M146.02,93.81h1.09v-3.24h0.02c0.34,0.55,0.93,0.95,1.97,0.95c1.79,0,2.54-1.58,2.54-3.2
		c0-1.58-0.83-2.99-2.54-2.99c-1.04,0-1.72,0.53-2,0.97h-0.03v-0.83h-1.04V93.81z"/>
	<path class="st0" d="M156.31,82.99h1.26l-1.52,1.67h-0.77L156.31,82.99z M158.65,91.38h-1.06v-0.94h-0.02
		c-0.32,0.67-1.11,1.08-1.93,1.08c-1.52,0-2.21-0.95-2.21-2.54v-3.5h1.09v3.05c0,1.38,0.3,2.05,1.25,2.11c1.23,0,1.79-1,1.79-2.44
		v-2.73h1.09V91.38z"/>
	<path class="st0" d="M165.28,88.4c0.03,0.94-0.46,2.25-1.63,2.25c-1.22,0-1.74-1.22-1.74-2.21c0-1.1,0.57-2.22,1.76-2.22
		C164.85,86.22,165.31,87.34,165.28,88.4z M160.82,91.38h1.05v-0.83h0.02c0.29,0.44,0.96,0.97,2.02,0.97c1.78,0,2.53-1.58,2.53-3.2
		c0-1.58-0.83-2.99-2.54-2.99c-1.03,0-1.62,0.4-1.96,0.95h-0.03V82.7h-1.09V91.38z"/>
	<path class="st0" d="M168.37,82.7h1.09v8.68h-1.09V82.7z"/>
	<path class="st0" d="M173.07,82.93h-1.23v1.22h1.23V82.93z M171.92,91.38H173v-5.9h-1.08V91.38z"/>
	<path class="st0" d="M179.07,86.47c-0.41-0.17-0.83-0.25-1.18-0.25c-1.22,0-1.89,1.09-1.89,2.21c0,1.06,0.57,2.22,1.96,2.22
		c0.37,0,0.83-0.13,1.17-0.34l0.08,0.97c-0.45,0.21-0.97,0.24-1.37,0.24c-1.78,0-3.01-1.4-3.01-3.09c0-1.79,1.2-3.09,3.01-3.09
		c0.44,0,1.01,0.1,1.32,0.23L179.07,86.47z"/>
	<path class="st0" d="M184.29,89.09c0,0.89-0.56,1.56-1.64,1.56c-0.5,0-1.1-0.34-1.1-0.97c0-1.05,1.46-1.13,2.04-1.13
		c0.24,0,0.47,0.02,0.7,0.02V89.09z M181.12,86.82c0.44-0.37,1.1-0.6,1.71-0.6c1.09,0,1.45,0.53,1.45,1.54
		c-0.42-0.02-0.73-0.02-1.16-0.02c-1.12,0-2.75,0.46-2.75,1.94c0,1.29,0.89,1.84,2.17,1.84c0.99,0,1.57-0.55,1.83-0.91h0.02v0.76
		h1.02c-0.03-0.17-0.04-0.49-0.04-1.16v-2.45c0-1.6-0.69-2.44-2.38-2.44c-0.75,0-1.39,0.23-1.95,0.56L181.12,86.82z"/>
	<path class="st0" d="M195.94,88.39h-3.22l1.6-4L195.94,88.39z M190.31,91.38h1.21l0.82-2.03h3.96l0.82,2.03h1.26l-3.42-8.08h-1.22
		L190.31,91.38z"/>
	<path class="st0" d="M199.78,85.48h1.02v0.91h0.02c0.29-0.62,0.92-1.06,1.54-1.06c0.33,0,0.5,0.03,0.72,0.08v0.98
		c-0.2-0.09-0.42-0.11-0.6-0.11c-0.98,0-1.61,0.93-1.61,2.41v2.69h-1.09V85.48z"/>
	<path class="st0" d="M207.02,90.5c-1.02,0-1.65-0.97-1.65-2.08c0-1.01,0.55-2.2,1.65-2.2c1.15,0,1.72,1.05,1.72,2.29
		C208.74,89.6,208.04,90.5,207.02,90.5z M209.83,85.48h-1.01v0.87h-0.03c-0.32-0.63-0.9-1.02-1.94-1.02c-1.79,0-2.64,1.62-2.64,3.14
		c0,1.53,0.83,2.9,2.52,2.9c0.75,0,1.52-0.3,1.98-0.91h0.02v0.58c0,1.25-0.69,2.03-1.83,2.03c-0.8,0-1.29-0.15-2.13-0.54l-0.11,1.01
		c0.95,0.32,1.49,0.4,2.12,0.4c2.11,0,3.04-1.03,3.04-2.82V85.48z"/>
	<path class="st0" d="M212.77,87.86c0.08-0.76,0.53-1.64,1.59-1.64c0.94,0,1.48,0.74,1.48,1.64H212.77z M216.54,90.05
		c-0.27,0.22-1.1,0.6-1.81,0.6c-1.03,0-1.96-0.81-1.96-1.98h4.22c0-1.9-0.64-3.34-2.61-3.34c-1.66,0-2.77,1.24-2.77,2.99
		c0,1.93,0.97,3.2,3.06,3.2c0.97,0,1.45-0.23,1.87-0.38V90.05z"/>
	<path class="st0" d="M218.77,85.48h1.05v0.93h0.02c0.32-0.68,1.11-1.08,1.94-1.08c1.52,0,2.21,0.95,2.21,2.54v3.51h-1.09v-3.06
		c0-1.38-0.3-2.05-1.25-2.11c-1.24,0-1.8,0.99-1.8,2.43v2.74h-1.09V85.48z"/>
	<path class="st0" d="M229.31,86.35h-1.56v3.23c0,0.69,0.42,1.06,0.92,1.06c0.34,0,0.58-0.11,0.75-0.21v0.92
		c-0.25,0.07-0.59,0.17-0.94,0.17c-1.12,0-1.82-0.54-1.82-1.72v-3.45h-1.33v-0.87h1.33v-1.37l1.09-0.34v1.71h1.56V86.35z"/>
	<path class="st0" d="M232.3,82.93h-1.23v1.22h1.23V82.93z M231.15,91.38h1.08v-5.9h-1.08V91.38z"/>
	<path class="st0" d="M234.55,85.48h1.05v0.93h0.02c0.33-0.68,1.12-1.08,1.94-1.08c1.52,0,2.21,0.95,2.21,2.54v3.51h-1.09v-3.06
		c0-1.38-0.29-2.05-1.24-2.11c-1.25,0-1.8,0.99-1.8,2.43v2.74h-1.09V85.48z"/>
	<path class="st0" d="M245.46,89.09c0,0.89-0.56,1.56-1.64,1.56c-0.5,0-1.1-0.34-1.1-0.97c0-1.05,1.46-1.13,2.05-1.13
		c0.24,0,0.46,0.02,0.7,0.02V89.09z M242.29,86.82c0.43-0.37,1.09-0.6,1.7-0.6c1.09,0,1.46,0.53,1.46,1.54
		c-0.43-0.02-0.73-0.02-1.16-0.02c-1.12,0-2.74,0.46-2.74,1.94c0,1.29,0.89,1.84,2.16,1.84c0.99,0,1.57-0.55,1.82-0.91h0.03v0.76
		h1.02c-0.02-0.17-0.05-0.49-0.05-1.16v-2.45c0-1.6-0.68-2.44-2.37-2.44c-0.75,0-1.4,0.23-1.95,0.56L242.29,86.82z"/>
	<path class="st0" d="M108.45,50.24h-8.68l4.45-13.33h0.11L108.45,50.24z M89.2,56.73c-1.07,2.91-1.23,3.88-1.23,5.11
		c0,2.04,1.63,3.37,3.99,3.37c2.71,0,3.58-1.74,4.35-4.03l1.02-3.27h13.58l1.02,3.27c0.77,2.3,1.63,4.03,4.34,4.03
		c2.35,0,3.98-1.33,3.98-3.37c0-1.23-0.15-2.2-1.22-5.11l-7.97-21.5c-1.47-4.04-2.75-7.5-7-7.5c-4.14,0-5.41,3.47-6.89,7.5
		L89.2,56.73z"/>
	<path class="st0" d="M128.42,55.35c2.04,0,4.69,2.09,8.94,2.09c3.22,0,4.39-1.64,4.39-3.42c0-2.76-3.17-3.32-7.87-4.85
		c-4.3-1.38-8.73-3.22-8.73-9.8c0-7.92,6.18-11.64,13.06-11.64c6.65,0,10.32,2.3,10.32,5.46c0,2.25-1.48,3.88-3.67,3.88
		c-2.66,0-3.53-1.38-7.05-1.38c-2.25,0-3.78,1.18-3.78,2.97c0,2.09,2.05,2.35,7.77,4.24c4.49,1.48,8.84,3.78,8.84,10.67
		c0,8.38-6.18,12.16-13.9,12.16c-4.86,0-12.21-1.89-12.21-5.98C124.54,57.5,125.91,55.35,128.42,55.35z"/>
	<path class="st0" d="M166.06,36.2h4.74c6.03,0,9.1,4.13,9.1,10.26c0,6.33-3.01,10.78-9.45,10.78h-4.39V36.2z M157.79,60.77
		c0,2.66,1.98,4.14,4.12,4.14h9.91c8.99,0,16.96-6.54,16.96-18.44c0-9.34-6.13-17.93-16.96-17.93h-9.91c-2.14,0-4.12,1.48-4.12,4.14
		V60.77z"/>
	<path class="st0" d="M204.22,36.2h5.46c2.35,0,4.24,1.48,4.24,3.93c0,2.29-1.53,4.08-4.24,4.08h-5.46V36.2z M195.94,60.82
		c0,2.9,1.73,4.39,4.14,4.39c2.39,0,4.14-1.48,4.14-4.39V50.34h0.1l10.16,12.83c1.03,1.27,1.78,2.04,3.93,2.04
		c3.17,0,4.24-2.66,4.24-3.83c0-1.38-0.62-2.35-1.74-3.58l-7.2-7.76c5.2-0.97,8.47-4.85,8.47-10.22c0-6.79-4.8-11.29-12.16-11.29
		h-9.95c-2.15,0-4.14,1.48-4.14,4.14V60.82z"/>
	<path class="st0" d="M247.78,50.24h-8.68l4.44-13.33h0.11L247.78,50.24z M228.52,56.73c-1.08,2.91-1.22,3.88-1.22,5.11
		c0,2.04,1.63,3.37,3.97,3.37c2.7,0,3.58-1.74,4.35-4.03l1.03-3.27h13.58l1.02,3.27c0.77,2.3,1.63,4.03,4.33,4.03
		c2.35,0,3.99-1.33,3.99-3.37c0-1.23-0.15-2.2-1.22-5.11l-7.98-21.5c-1.47-4.04-2.76-7.5-7-7.5c-4.13,0-5.41,3.47-6.89,7.5
		L228.52,56.73z"/>
</g>
</svg>
