<?xml version="1.0" encoding="utf-8"?>
<!-- Generator: Adobe Illustrator 23.0.6, SVG Export Plug-In . SVG Version: 6.00 Build 0)  -->
<svg version="1.1" id="Capa_1" xmlns="http://www.w3.org/2000/svg" xmlns:xlink="http://www.w3.org/1999/xlink" x="0px" y="0px"
	 viewBox="0 0 32 32" style="enable-background:new 0 0 32 32;" xml:space="preserve">
<style type="text/css">
	.st0{fill:#579902;}
</style>
<g>
	<path class="st0" d="M8.34,6.88c1.5,0,2.71-1.22,2.71-2.71S9.83,1.45,8.34,1.45c-1.5,0-2.72,1.22-2.72,2.71
		C5.62,5.67,6.84,6.88,8.34,6.88z"/>
	<path class="st0" d="M23.78,6.88c1.49,0,2.71-1.22,2.71-2.71s-1.22-2.71-2.71-2.71c-1.5,0-2.71,1.22-2.71,2.71
		S22.29,6.88,23.78,6.88z"/>
	<path class="st0" d="M13.39,15.39c0,1.5,1.21,2.71,2.71,2.71c1.49,0,2.71-1.22,2.71-2.71c0-1.5-1.22-2.71-2.71-2.71
		C14.6,12.68,13.39,13.89,13.39,15.39z"/>
	<path class="st0" d="M14.48,4.3v0.01l-6.17,6.16L3.13,5.28c-0.55-0.55-1.44-0.55-1.98,0L0.41,6.02c-0.55,0.55-0.55,1.43,0,1.98
		l5.98,5.98v14.46h3.83l0.15-0.01l3.72-3.61l0,1.05v1.17c0,0.77,0.63,1.4,1.4,1.4h1.05c0.77,0,1.4-0.63,1.4-1.4v-2.25l3.56,3.56
		l0.1,0.08l4.04,0l-0.03-14.39l6-6c0.55-0.55,0.55-1.43,0-1.98l-0.74-0.74c-0.55-0.55-1.43-0.55-1.98,0l-5.2,5.16L17.5,4.3V4.3
		 M21.76,23.26l-3.87-3.87l-3.83,0l-3.84,3.84v-9.29l5.77-5.77l5.77,5.77V23.26z M17.5,4.3c0,0-0.5-0.54-1.53-0.54
		c-1-0.01-1.49,0.54-1.49,0.54"/>
</g>
</svg>
